HIERARCHY
ROOT Hips
{
  OFFSET 5.84602e-005 68.8428 3.50346
  CHANNELS 6 Xposition Yposition Zposition Zrotation Xrotation Yrotation
  JOINT Spine
  {
    OFFSET 0 8.597 -4.6522
    CHANNELS 3 Zrotation Xrotation Yrotation
    JOINT Spine1
    {
      OFFSET 0 7.8454 0.4098
      CHANNELS 3 Zrotation Xrotation Yrotation
      JOINT Spine2
      {
        OFFSET 0 9.7078 -2.1609
        CHANNELS 3 Zrotation Xrotation Yrotation
        JOINT Neck
        {
          OFFSET 0 21.8761 -0.4549
          CHANNELS 3 Zrotation Xrotation Yrotation
          JOINT Head
          {
            OFFSET 0 12.3537 3.3602
            CHANNELS 3 Zrotation Xrotation Yrotation
            End Site
            {
              OFFSET 0.0001 18.9506 0.5657
            }
          }
        }
        JOINT LeftShoulder
        {
          OFFSET 2.2086 21.1115 7.2329
          CHANNELS 3 Zrotation Xrotation Yrotation
          JOINT LeftArm
          {
            OFFSET 13.1193 3.0282 -4.8998
            CHANNELS 3 Zrotation Xrotation Yrotation
            JOINT LeftForeArm
            {
              OFFSET 27.4081 -0.0973053 -0.2375
              CHANNELS 3 Zrotation Xrotation Yrotation
              JOINT LeftHand
              {
                OFFSET 22.8641 0.0662994 -0.1369
                CHANNELS 3 Zrotation Xrotation Yrotation
                JOINT LeftHandIndex1
                {
                  OFFSET 8.8614 0.775009 2.4612
                  CHANNELS 3 Zrotation Xrotation Yrotation
                  JOINT LeftHandIndex2
                  {
                    OFFSET 3.3146 -0.808304 0.5841
                    CHANNELS 3 Zrotation Xrotation Yrotation
                    JOINT LeftHandIndex3
                    {
                      OFFSET 2.2628 -0.552002 0.3989
                      CHANNELS 3 Zrotation Xrotation Yrotation
                      End Site
                      {
                        OFFSET 1.6102 -0.4807 0.2612
                      }
                    }
                  }
                }
                JOINT LeftHandMiddle1
                {
                  OFFSET 8.9937 0.895004 0.2143
                  CHANNELS 3 Zrotation Xrotation Yrotation
                  JOINT LeftHandMiddle2
                  {
                    OFFSET 4.0984 0.0113983 -0.0242
                    CHANNELS 3 Zrotation Xrotation Yrotation
                    JOINT LeftHandMiddle3
                    {
                      OFFSET 2.2716 0.00689697 -0.0138001
                      CHANNELS 3 Zrotation Xrotation Yrotation
                      End Site
                      {
                        OFFSET 2.0404 -0.1441 0.0027
                      }
                    }
                  }
                }
                JOINT LeftHandRing1
                {
                  OFFSET 8.5234 0.597198 -2.0164
                  CHANNELS 3 Zrotation Xrotation Yrotation
                  JOINT LeftHandRing2
                  {
                    OFFSET 3.7188 -0.188293 -0.2328
                    CHANNELS 3 Zrotation Xrotation Yrotation
                    JOINT LeftHandRing3
                    {
                      OFFSET 2.1191 -0.106598 -0.1332
                      CHANNELS 3 Zrotation Xrotation Yrotation
                      End Site
                      {
                        OFFSET 1.8737 -0.2304 -0.0886
                      }
                    }
                  }
                }
                JOINT LeftHandPinky1
                {
                  OFFSET 7.9094 -0.601089 -3.4825
                  CHANNELS 3 Zrotation Xrotation Yrotation
                  JOINT LeftHandPinky2
                  {
                    OFFSET 2.2874 -0.477005 -0.6314
                    CHANNELS 3 Zrotation Xrotation Yrotation
                    JOINT LeftHandPinky3
                    {
                      OFFSET 1.6774 -0.349396 -0.4633
                      CHANNELS 3 Zrotation Xrotation Yrotation
                      End Site
                      {
                        OFFSET 1.4888 -0.4091 -0.3416
                      }
                    }
                  }
                }
                JOINT LeftHandThumb1
                {
                  OFFSET 1.833 -1.3875 1.3896
                  CHANNELS 3 Zrotation Xrotation Yrotation
                  JOINT LeftHandThumb2
                  {
                    OFFSET 3.4129 -1.121 2.5732
                    CHANNELS 3 Zrotation Xrotation Yrotation
                    JOINT LeftHandThumb3
                    {
                      OFFSET 2.2474 -0.804199 1.6192
                      CHANNELS 3 Zrotation Xrotation Yrotation
                      End Site
                      {
                        OFFSET 1.6527 -0.5689 1.1317
                      }
                    }
                  }
                }
              }
            }
          }
        }
        JOINT RightShoulder
        {
          OFFSET -2.2086 21.1115 7.2329
          CHANNELS 3 Zrotation Xrotation Yrotation
          JOINT RightArm
          {
            OFFSET -13.1216 3.0287 -4.9007
            CHANNELS 3 Zrotation Xrotation Yrotation
            JOINT RightForeArm
            {
              OFFSET -27.4081 -0.0973053 -0.2375
              CHANNELS 3 Zrotation Xrotation Yrotation
              JOINT RightHand
              {
                OFFSET -22.8641 0.0664063 -0.1369
                CHANNELS 3 Zrotation Xrotation Yrotation
                JOINT RightHandIndex1
                {
                  OFFSET -8.8614 0.774994 2.4612
                  CHANNELS 3 Zrotation Xrotation Yrotation
                  JOINT RightHandIndex2
                  {
                    OFFSET -3.3146 -0.808304 0.5841
                    CHANNELS 3 Zrotation Xrotation Yrotation
                    JOINT RightHandIndex3
                    {
                      OFFSET -2.2628 -0.552002 0.3989
                      CHANNELS 3 Zrotation Xrotation Yrotation
                      End Site
                      {
                        OFFSET -1.6102 -0.4807 0.2612
                      }
                    }
                  }
                }
                JOINT RightHandMiddle1
                {
                  OFFSET -8.9937 0.894989 0.2143
                  CHANNELS 3 Zrotation Xrotation Yrotation
                  JOINT RightHandMiddle2
                  {
                    OFFSET -4.0984 0.0113983 -0.0242
                    CHANNELS 3 Zrotation Xrotation Yrotation
                    JOINT RightHandMiddle3
                    {
                      OFFSET -2.2716 0.00691223 -0.0138001
                      CHANNELS 3 Zrotation Xrotation Yrotation
                      End Site
                      {
                        OFFSET -2.0404 -0.1441 0.0027
                      }
                    }
                  }
                }
                JOINT RightHandRing1
                {
                  OFFSET -8.5234 0.597198 -2.0164
                  CHANNELS 3 Zrotation Xrotation Yrotation
                  JOINT RightHandRing2
                  {
                    OFFSET -3.7188 -0.188309 -0.2328
                    CHANNELS 3 Zrotation Xrotation Yrotation
                    JOINT RightHandRing3
                    {
                      OFFSET -2.1191 -0.106598 -0.1332
                      CHANNELS 3 Zrotation Xrotation Yrotation
                      End Site
                      {
                        OFFSET -1.8737 -0.2304 -0.0886
                      }
                    }
                  }
                }
                JOINT RightHandPinky1
                {
                  OFFSET -7.9094 -0.601105 -3.4825
                  CHANNELS 3 Zrotation Xrotation Yrotation
                  JOINT RightHandPinky2
                  {
                    OFFSET -2.2874 -0.477005 -0.6314
                    CHANNELS 3 Zrotation Xrotation Yrotation
                    JOINT RightHandPinky3
                    {
                      OFFSET -1.6774 -0.349396 -0.4633
                      CHANNELS 3 Zrotation Xrotation Yrotation
                      End Site
                      {
                        OFFSET -1.4888 -0.4091 -0.3416
                      }
                    }
                  }
                }
                JOINT RightHandThumb1
                {
                  OFFSET -1.833 -1.38751 1.3896
                  CHANNELS 3 Zrotation Xrotation Yrotation
                  JOINT RightHandThumb2
                  {
                    OFFSET -3.41299 -1.12099 2.5732
                    CHANNELS 3 Zrotation Xrotation Yrotation
                    JOINT RightHandThumb3
                    {
                      OFFSET -2.24741 -0.804108 1.6192
                      CHANNELS 3 Zrotation Xrotation Yrotation
                      End Site
                      {
                        OFFSET -1.6527 -0.5689 1.1317
                      }
                    }
                  }
                }
              }
            }
          }
        }
      }
    }
  }
  JOINT RightUpLeg
  {
    OFFSET -9.1966 3.8861 -0.7581
    CHANNELS 3 Zrotation Xrotation Yrotation
    JOINT RightLeg
    {
      OFFSET -0.7359 -41.0265 0
      CHANNELS 3 Zrotation Xrotation Yrotation
      JOINT RightFoot
      {
        OFFSET 0 -40.2855 0
        CHANNELS 3 Zrotation Xrotation Yrotation
        JOINT RightToeBase
        {
          OFFSET 0 -5.6122 11.7359
          CHANNELS 3 Zrotation Xrotation Yrotation
          End Site
          {
            OFFSET 0 0 7.8731
          }
        }
      }
    }
  }
  JOINT LeftUpLeg
  {
    OFFSET 9.1965 3.8864 -0.7581
    CHANNELS 3 Zrotation Xrotation Yrotation
    JOINT LeftLeg
    {
      OFFSET 0.7359 -41.0268 0
      CHANNELS 3 Zrotation Xrotation Yrotation
      JOINT LeftFoot
      {
        OFFSET 0 -40.2855 0
        CHANNELS 3 Zrotation Xrotation Yrotation
        JOINT LeftToeBase
        {
          OFFSET 0 -5.6122 11.7359
          CHANNELS 3 Zrotation Xrotation Yrotation
          End Site
          {
            OFFSET 0 0 7.8731
          }
        }
      }
    }
  }
}
MOTION
Frames:	4
Frame Time:	0.0333333
5.84602e-005 68.8428 3.50346 0 0 -0 0 0 -0 0 0 -0 0 0 -0 0 0 -0 0 0 -0 0 0 -0 0 0 -0 0 0 -0 0 0 -0 0 0 -0 0 0 -0 0 0 -0 0 0 -0 -0.0146107 -8.87603e-005 -2.63497e-007 2.99804e-018 -2.42657e-020 -1.42182e-022 0 0 -0 -0.0187562 -0.001176 5.858e-005 5.06224e-018 3.88251e-019 1.21329e-020 0 0 -0 -0.012269 -0.00324817 0.000675346 -1.74678e-018 3.88251e-019 -0 0 0 -0 0 0 -0 0 0 -0 0 0 -0 0 0 -0 0 0 -0 0 0 -0 0 0 -0 0 0 -0 0 0 -0 0 0 -0 0.0149955 -9.10982e-005 2.64101e-007 -9.69331e-018 1.21329e-020 -4.7394e-023 0 0 -0 0.0189956 -0.00119102 -5.96516e-005 -5.41541e-019 0 2.42657e-020 0 0 -0 0.0122698 -0.00324857 -0.000673756 -2.00796e-019 0 -1.94126e-019 0 0 -0 0 0 -0 0 0 -0 3.39842 1.33031 -0.0637918 -5.65207e-008 0.834868 -0.000436188 -3.39935 -2.16518 -0.0642563 -8.89002e-024 -1.18485e-023 -1.48106e-024 -3.39844 1.35642 0.0640283 -3.18788e-007 0.782166 -0.000588827 3.39931 -2.13858 0.0634662 1.1399e-023 0 -0 
7.48244e-005 21.8306 7.37034 -0 -72.5948 -0 -0.0230348 0.633234 -0.14765 -0.0444416 1.26654 -0.295072 -0.0444416 1.26653 -0.295072 2.35072e-005 29.668 -6.52537e-005 1.20301e-007 6.7622 -6.69345e-008 12.063 3.3724 5.19007 -21.8537 -57.0634 -40.9983 25.214 -4.38887 -97.4926 -7.87017 -7.8179 -17.4193 -1.04072e-006 2.84384e-006 5.0659e-006 -1.94277e-006 -2.1117e-006 -3.85528e-006 -1.04072e-006 2.84384e-006 5.0659e-006 -1.04072e-006 2.84384e-006 5.0659e-006 -0.0144598 -9.00646e-005 -3.08969e-006 -1.04066e-006 2.8432e-006 5.06626e-006 -1.04072e-006 2.84384e-006 5.0659e-006 -0.0188141 -0.00118085 5.85249e-005 -1.0406e-006 2.84302e-006 5.06638e-006 -1.04072e-006 2.84384e-006 5.0659e-006 -0.012373 -0.00327339 0.000679175 -1.04051e-006 2.84331e-006 5.06624e-006 -1.04072e-006 2.84384e-006 5.0659e-006 -1.94277e-006 -2.1117e-006 -3.85528e-006 -1.04072e-006 2.84384e-006 5.0659e-006 -12.0656 3.37297 -5.19265 21.8478 -57.0644 40.9915 -25.2148 -4.38016 97.4733 7.86742 -7.81863 17.4164 -2.00757e-006 3.29064e-006 -5.98924e-007 5.98295e-007 4.56987e-007 1.48875e-006 2.64834e-031 -6.36111e-015 2.38542e-015 -2.00757e-006 3.29064e-006 -5.98924e-007 0.0149812 -9.35538e-005 2.54144e-006 -2.00631e-006 3.29056e-006 -5.99353e-007 -2.00757e-006 3.29064e-006 -5.98924e-007 0.0189452 -0.00118303 -6.07942e-005 -3.18055e-015 9.54166e-015 4.77083e-015 -2.00757e-006 3.29064e-006 -5.98924e-007 0.012205 -0.00322451 -0.00067227 -4.77083e-015 9.54166e-015 7.95139e-016 -2.00757e-006 3.29064e-006 -5.98924e-007 5.98295e-007 4.56987e-007 1.48875e-006 2.64834e-031 -6.36111e-015 2.38542e-015 -28.9348 5.46201 -27.3778 -37.5708 44.8545 31.3367 5.45697 -3.15322 -1.36259 -7.87062e-007 -2.98843e-007 1.25188e-007 28.9319 5.45993 27.3755 37.5715 44.8601 -31.3438 -5.45927 -3.15359 1.36263 1.09824e-006 1.84191e-006 3.01452e-006 
-3.86836e-005 0.860788 5.31239 -180 -74.7376 -180 -0.0444954 0.895804 -0.213152 -0.0856726 1.7918 -0.425685 -0.0856725 1.79178 -0.425685 -1.4236e-005 42.8208 3.30474e-005 2.47364e-007 9.32714 -2.28422e-007 17.2917 4.86739 7.5401 -74.7032 -59.5887 -94.641 23.0682 -33.8724 -133.659 -12.949 -10.7458 -25.4939 -2.38542e-015 3.18055e-015 -6.36111e-015 -4.15446e-007 -5.36795e-008 -7.85766e-008 -8.30893e-007 -1.07359e-007 -1.57153e-007 -2.38542e-015 3.18055e-015 -6.36111e-015 -0.0146018 -8.80369e-005 1.43672e-006 -8.30899e-007 -1.07339e-007 -1.57166e-007 -2.38542e-015 3.18055e-015 -6.36111e-015 -0.0187489 -0.00117712 5.93537e-005 -8.30902e-007 -1.07333e-007 -1.57162e-007 -2.38542e-015 3.18055e-015 -6.36111e-015 -0.0122904 -0.00325445 0.000678384 -8.30903e-007 -1.07339e-007 -1.57141e-007 -2.38542e-015 3.18055e-015 -6.36111e-015 -4.15446e-007 -5.36795e-008 -7.85766e-008 -8.30893e-007 -1.07359e-007 -1.57153e-007 -17.2954 4.86812 -7.54364 74.7002 -59.5941 94.6381 -23.0824 -33.8713 133.617 12.9449 -10.747 25.4898 -2.19725e-007 -1.66345e-006 -6.46415e-008 -1.96137e-007 1.71838e-006 -1.28986e-008 -2.19725e-007 -1.66345e-006 -6.46415e-008 -2.19725e-007 -1.66345e-006 -6.46415e-008 0.0150155 -8.80388e-005 2.80527e-006 -2.19684e-007 -1.66346e-006 -6.44233e-008 -2.19725e-007 -1.66345e-006 -6.46415e-008 0.0190228 -0.0011886 -5.89016e-005 -2.19673e-007 -1.66346e-006 -6.43632e-008 -2.19725e-007 -1.66345e-006 -6.46415e-008 0.0122507 -0.0032416 -0.00067584 -2.19684e-007 -1.66347e-006 -6.44593e-008 -2.19725e-007 -1.66345e-006 -6.46415e-008 -1.96137e-007 1.71838e-006 -1.28986e-008 -2.19725e-007 -1.66345e-006 -6.46415e-008 -42.0716 7.27921 -40.2117 -74.1057 53.006 59.5699 9.46225 -3.37129 -2.09536 -3.81296e-006 1.43115e-006 -3.01692e-006 42.0676 7.27716 40.2072 74.0767 52.9992 -59.5413 -9.4661 -3.3715 2.0947 -2.95997e-006 -1.92179e-008 -2.74662e-006 
-0.000235176 5.63334 5.96581 -180 -81.997 -180 -0.0388762 0.787441 -0.198509 -0.075034 1.57501 -0.396541 -0.0750339 1.57502 -0.396541 1.13201e-005 39.4593 -2.35009e-005 1.41848e-008 7.69451 -1.60389e-007 16.1405 4.53709 7.01664 -63.0135 -61.5698 -83.1858 25.77 -26.7796 -125.278 -11.7429 -10.1439 -23.6828 4.96962e-016 1.59028e-015 -3.18055e-015 3.97569e-016 7.95139e-016 -2.38542e-015 1.98785e-016 0 -1.59028e-015 4.96962e-016 1.59028e-015 -3.18055e-015 -0.0146171 -8.81884e-005 6.4791e-007 -9.93923e-017 -1.59028e-015 -0 4.96962e-016 1.59028e-015 -3.18055e-015 -0.0187727 -0.00117708 5.89296e-005 1.98785e-016 -1.59028e-015 2.38542e-015 4.96962e-016 1.59028e-015 -3.18055e-015 -0.0122854 -0.003252 0.000678126 -1.98785e-016 2.38542e-015 1.59028e-015 4.96962e-016 1.59028e-015 -3.18055e-015 3.97569e-016 7.95139e-016 -2.38542e-015 1.98785e-016 0 -1.59028e-015 -16.1439 4.53783 -7.02001 63.0085 -61.5743 83.1805 -25.7797 -26.7755 125.243 11.7391 -10.145 23.6789 -6.52571e-008 9.35158e-008 9.04915e-008 -1.06462e-007 5.17651e-009 -5.25608e-009 -4.12045e-008 -8.83393e-008 -9.57476e-008 -6.52571e-008 9.35158e-008 9.04915e-008 0.0149934 -9.10548e-005 2.96373e-007 -4.03075e-008 -8.83573e-008 -9.57359e-008 -6.52571e-008 9.35158e-008 9.04915e-008 0.0189851 -0.00119045 -6.07731e-005 -4.00695e-008 -8.84264e-008 -9.57361e-008 -6.52571e-008 9.35158e-008 9.04915e-008 0.0122654 -0.0032466 -0.000675576 -6.59888e-008 9.37193e-008 9.05237e-008 -6.52571e-008 9.35158e-008 9.04915e-008 -1.06462e-007 5.17651e-009 -5.25608e-009 -4.12045e-008 -8.83393e-008 -9.57476e-008 -39.1788 6.98833 -37.3471 -64.4217 51.9961 51.9104 8.51614 -3.28156 -1.93234 2.5315e-007 -2.69574e-008 3.66849e-007 39.1742 6.98714 37.3407 64.3278 51.9583 -51.7992 -8.5206 -3.28114 1.93 -1.29642e-007 -3.82037e-006 -3.71649e-006 
